<svg width="180" height="180" viewBox="0 0 180 180" fill="none" xmlns="http://www.w3.org/2000/svg">
<g clip-path="url(#clip0_19_813)">
<path d="M145.244 30C155.363 30 163.565 38.3947 163.565 48.75V131.335C163.565 141.691 155.363 150.085 145.244 150.085H35.3207C25.2025 150.085 17 141.691 17 131.335V48.75C17 38.3947 25.2025 30 35.3207 30H145.244ZM145.244 37.5H35.3207C29.2497 37.5 24.3283 42.5368 24.3283 48.75V131.335C24.3283 137.548 29.2497 142.585 35.3207 142.585H145.244C151.315 142.585 156.237 137.548 156.237 131.335V48.75C156.237 42.5368 151.315 37.5 145.244 37.5ZM31.6565 78.75C31.6565 76.679 33.297 75 35.3207 75C37.3443 75 38.9848 76.679 38.9848 78.75V101.25C38.9848 103.321 37.3443 105 35.3207 105C33.297 105 31.6565 103.321 31.6565 101.25V78.75Z" fill="black" stroke="#313132" stroke-width="0.00256"/>
<path d="M64 85.6583C64 76.2902 64 71.6063 65.0807 70.0305C66.1613 68.4547 70.4647 66.9471 79.0713 63.932L80.711 63.3576C85.1975 61.7859 87.4406 61 89.7634 61C92.0861 61 94.3292 61.7859 98.8157 63.3576L100.455 63.932C109.062 66.9471 113.365 68.4547 114.446 70.0305C115.527 71.6063 115.527 76.2902 115.527 85.6583C115.527 87.073 115.527 88.6076 115.527 90.2717C115.527 106.789 103.392 114.805 95.7788 118.209C93.7137 119.132 92.6812 119.594 89.7634 119.594C86.8455 119.594 85.813 119.132 83.7478 118.209C76.1344 114.805 64 106.789 64 90.2717C64 88.6076 64 87.073 64 85.6583Z" stroke="black" stroke-width="5"/>
<path d="M89.7633 94.6914V103.48M94.0563 93.5125C89.9497 95.9392 84.6982 94.4992 82.3273 90.296C79.9563 86.0931 81.3633 80.7187 85.4703 78.2921C87.144 77.3029 89.0084 76.9562 90.7901 77.1773C93.3793 77.4985 95.7948 79.0187 97.1992 81.5085C98.6039 83.9983 98.6826 86.8993 97.6598 89.355C96.9559 91.0445 95.7304 92.5234 94.0563 93.5125Z" stroke="#2B5088" stroke-width="5" stroke-linecap="round"/>
<rect width="70" height="70" transform="translate(116 103)" fill="#F5F5F5"/>
<path fill-rule="evenodd" clip-rule="evenodd" d="M159.969 125.72C159.969 133.006 154.062 138.913 146.776 138.913C139.49 138.913 133.583 133.006 133.583 125.72C133.583 118.434 139.49 112.527 146.776 112.527C154.062 112.527 159.969 118.434 159.969 125.72ZM146.909 134.4C149.991 134.4 152.561 132.908 153.162 130.924H140.657C141.257 132.908 143.828 134.4 146.909 134.4ZM158.756 160.907L156.467 158.618C155.332 157.482 155.332 155.636 156.467 154.5L157.754 153.214C158.304 152.664 159.035 152.361 159.813 152.361C160.59 152.361 161.321 152.664 161.871 153.214L164.827 156.168L169.067 152.634V152.561C169.067 146.044 164.106 140.638 157.775 139.914C157.582 139.892 157.297 139.974 157.14 140.088C154.221 142.201 150.647 143.462 146.776 143.462C142.905 143.462 139.331 142.201 136.412 140.088C136.255 139.974 135.97 139.892 135.778 139.914C129.446 140.638 124.485 146.044 124.485 152.561V156.91C124.485 157.554 124.959 158.303 125.548 158.565C127.831 159.581 134.056 161.659 146.776 161.659C151.695 161.659 155.632 161.347 158.756 160.907Z" fill="black"/>
<path d="M177.189 153.209L165.118 163.269C164.767 163.561 164.216 163.536 163.893 163.213L157.883 157.202C157.529 156.849 157.529 156.27 157.883 155.916L159.169 154.629C159.523 154.275 160.102 154.275 160.456 154.629L164.704 158.876L174.859 150.414C175.244 150.093 175.82 150.146 176.141 150.53L177.305 151.928C177.626 152.312 177.573 152.889 177.189 153.209Z" fill="#34B233"/>
</g>
<defs>
<clipPath id="clip0_19_813">
<rect width="180" height="180" fill="white"/>
</clipPath>
</defs>
</svg>
