<svg width="472" height="180" viewBox="0 0 472 180" fill="none" xmlns="http://www.w3.org/2000/svg">
<path d="M168.001 99.1641L304.121 99.0468" stroke="black" stroke-width="3" stroke-linecap="square" stroke-dasharray="10 13"/>
<path d="M146.107 71.3577L158.423 69.3069L160.949 63.2139L147.181 60.9856L146.045 66.6115L143.951 68.5694L146.107 71.3577Z" fill="#2B5088"/>
<path d="M146.121 71.361L144.022 68.4363L146.06 66.6073L147.204 61.0015L148.375 61.1756L154.348 69.9665L146.121 71.361Z" fill="#2B5088"/>
<path d="M31 63.1349L33.5261 69.2279L45.8417 71.2787L47.9978 68.4905L45.9039 66.5326L44.7672 60.9075L31 63.1349Z" fill="#2B5088"/>
<path d="M45.856 71.277L47.9554 68.3523L45.9174 66.5233L44.7725 60.9175L43.6024 61.0916L37.6111 69.9068L45.856 71.277Z" fill="#2B5088"/>
<path d="M34.5095 123.65L36.0251 140H53.456L57.0566 123.475L34.5095 123.65Z" fill="#5C5E5F"/>
<path d="M52.6991 123.475L53.4569 140L58.8627 123.475H52.6991Z" fill="#2A2B2A"/>
<path d="M136.877 140H154.334L155.85 123.827L133.302 123.65L136.877 140Z" fill="#5C5E5F"/>
<path d="M131.497 123.65L136.877 140L137.661 123.65H131.497Z" fill="#2A2B2A"/>
<path d="M57.5853 40.2954L32.218 87.0296L34.4905 123.604L36.1956 123.61L155.857 124.002L159.282 87.256L134.468 40.2954H57.5853Z" fill="#2B5088"/>
<path d="M60.7338 43.7212L46.6338 68.8499H144.001L131.668 43.7212L60.7338 43.7212Z" fill="#313156"/>
<path d="M60.766 43.7212L46.6338 68.8494H71.8717L98.8564 43.7212H60.766Z" fill="#0F2342" fill-opacity="0.3"/>
<path d="M131.705 43.7212H128.407L101.144 68.85H144.001L131.705 43.7212Z" fill="#0A1723" fill-opacity="0.3"/>
<path d="M101.632 68.8497L128.406 43.7214H120.929L94.6621 68.8497H101.632Z" fill="#494A72"/>
<path d="M33.4689 99.3211L32.7512 88.1834L58.7759 88.152L57.9058 99.2985L33.4689 99.3211Z" fill="#F6F1E1" stroke="black"/>
<path d="M59.3174 87.6514L66.1477 98.3901L58.3683 99.798L59.3174 87.6514Z" fill="#EF9C74"/>
<path d="M133.027 88.152L158.695 88.1833L157.649 99.2866L133.898 99.2978L133.027 88.152Z" fill="#F6F1E1" stroke="black"/>
<path d="M132.486 87.6514L127.237 98.3901L133.435 99.798L132.486 87.6514Z" fill="#EF9C74"/>
<path d="M132.457 87.6847L59.3264 87.6487L66.1865 98.3891H127.277L132.457 87.6847Z" fill="#2A2B2A"/>
<path d="M127.341 91.0941L125.604 94.3888L67.8303 94.4348L65.4919 90.8589L127.341 91.0941Z" fill="#5C5E5F"/>
<path d="M425.671 71.0623L437.987 69.0115L440.513 62.9185L426.745 60.6902L425.609 66.3161L423.515 68.274L425.671 71.0623Z" fill="#2B5088"/>
<path d="M425.685 71.0658L423.585 68.1411L425.623 66.3121L426.768 60.7063L427.938 60.8804L433.912 69.6713L425.685 71.0658Z" fill="#2B5088"/>
<path d="M310.564 62.8395L313.09 68.9325L325.406 70.9833L327.562 68.1951L325.468 66.2372L324.331 60.6121L310.564 62.8395Z" fill="#2B5088"/>
<path d="M325.42 70.9819L327.519 68.0572L325.481 66.2282L324.336 60.6223L323.166 60.7964L317.175 69.6116L325.42 70.9819Z" fill="#2B5088"/>
<path d="M314.073 123.355L315.589 139.705H333.02L336.621 123.179L314.073 123.355Z" fill="#5C5E5F"/>
<path d="M332.263 123.179L333.021 139.705L338.427 123.179H332.263Z" fill="#2A2B2A"/>
<path d="M416.441 139.705H433.898L435.414 123.532L412.866 123.355L416.441 139.705Z" fill="#5C5E5F"/>
<path d="M411.061 123.355L416.441 139.705L417.225 123.355H411.061Z" fill="#2A2B2A"/>
<path d="M337.149 40L311.782 86.7342L314.054 123.309L315.76 123.315L435.421 123.707L438.846 86.9606L414.031 40H337.149Z" fill="#2B5088"/>
<path d="M340.298 43.426L326.198 68.5548H423.565L411.232 43.426L340.298 43.426Z" fill="#313156"/>
<path d="M340.33 43.426L326.198 68.5543H351.436L378.42 43.426H340.33Z" fill="#0F2342" fill-opacity="0.3"/>
<path d="M411.269 43.4263H407.971L380.708 68.555H423.565L411.269 43.4263Z" fill="#0A1723" fill-opacity="0.3"/>
<path d="M381.196 68.5545L407.969 43.4263H400.493L374.226 68.5545H381.196Z" fill="#494A72"/>
<path d="M313.033 99.0256L312.315 87.8879L338.34 87.8566L337.47 99.0031L313.033 99.0256Z" fill="#F6F1E1" stroke="black"/>
<path d="M338.881 87.356L345.712 98.0947L337.932 99.5026L338.881 87.356Z" fill="#EF9C74"/>
<path d="M412.591 87.8566L438.259 87.8879L437.213 98.9911L413.462 99.0024L412.591 87.8566Z" fill="#F6F1E1" stroke="black"/>
<path d="M412.05 87.356L406.801 98.0947L412.999 99.5026L412.05 87.356Z" fill="#EF9C74"/>
<path d="M412.02 87.3895L338.89 87.3535L345.75 98.0939H406.841L412.02 87.3895Z" fill="#2A2B2A"/>
<path d="M406.905 90.7989L405.168 94.0936L347.394 94.1397L345.056 90.5637L406.905 90.7989Z" fill="#5C5E5F"/>
<g clip-path="url(#clip0_18_561)">
<path d="M257.275 99.5671C257.275 87.6975 247.653 78.0752 235.784 78.0752C223.914 78.0752 214.292 87.6975 214.292 99.5671C214.292 111.437 223.914 121.059 235.784 121.059C247.653 121.059 257.275 111.437 257.275 99.5671Z" fill="#2B3088"/>
<path d="M257.275 99.5671C257.275 87.6975 247.653 78.0752 235.784 78.0752C223.914 78.0752 214.292 87.6975 214.292 99.5671C214.292 111.437 223.914 121.059 235.784 121.059C247.653 121.059 257.275 111.437 257.275 99.5671Z" fill="#2B3088"/>
<path fill-rule="evenodd" clip-rule="evenodd" d="M235.171 88.688L237.284 90.1888C237.907 90.6311 238.451 91.0175 238.831 91.3808C239.235 91.7677 239.599 92.2624 239.599 92.9368C239.599 93.6112 239.235 94.1059 238.831 94.4928C238.451 94.8561 237.907 95.2425 237.284 95.6848L232.156 99.3264L237.284 102.968C237.907 103.41 238.451 103.797 238.831 104.16C239.235 104.547 239.599 105.042 239.599 105.716C239.599 106.39 239.235 106.885 238.831 107.272C238.451 107.635 237.907 108.022 237.284 108.464L235.171 109.965C234.329 110.562 233.619 111.067 233.03 111.367C232.43 111.673 231.698 111.903 230.966 111.529C230.231 111.153 229.992 110.423 229.894 109.758C229.797 109.106 229.797 108.237 229.797 107.21V100.987L225.393 104.071C225.001 104.345 224.462 104.25 224.188 103.858C223.914 103.467 224.009 102.928 224.401 102.654L229.154 99.3264L224.401 95.9991C224.009 95.7252 223.914 95.1859 224.188 94.7946C224.462 94.4034 225.001 94.3082 225.393 94.5821L229.797 97.6654V91.5137C229.797 91.49 229.797 91.4663 229.797 91.4428C229.797 90.4157 229.797 89.5473 229.894 88.8953C229.992 88.23 230.231 87.5 230.966 87.1242C231.698 86.7495 232.43 86.9798 233.03 87.2857C233.619 87.5862 234.329 88.0906 235.171 88.688ZM231.527 101.001V107.139C231.527 108.256 231.529 108.994 231.605 109.504C231.641 109.751 231.687 109.881 231.721 109.945C231.736 109.974 231.747 109.985 231.747 109.985C231.747 109.985 231.748 109.986 231.753 109.989C231.758 109.991 231.761 109.992 231.761 109.992C231.763 109.992 231.778 109.994 231.811 109.99C231.886 109.979 232.02 109.941 232.244 109.826C232.706 109.591 233.312 109.163 234.226 108.514L236.231 107.091C236.921 106.6 237.358 106.287 237.635 106.022C237.767 105.897 237.825 105.815 237.851 105.768C237.869 105.735 237.869 105.724 237.869 105.717V105.715C237.869 105.709 237.869 105.697 237.851 105.664C237.825 105.617 237.767 105.535 237.635 105.41C237.358 105.145 236.921 104.832 236.231 104.341L231.527 101.001ZM231.527 97.6516V91.5137C231.527 90.3965 231.529 89.6585 231.605 89.1487C231.641 88.902 231.687 88.7721 231.721 88.7074C231.736 88.679 231.747 88.668 231.747 88.668C231.747 88.668 231.748 88.6669 231.753 88.664C231.758 88.6614 231.761 88.6611 231.761 88.6611C231.763 88.6607 231.778 88.6586 231.811 88.6632C231.886 88.6735 232.02 88.7124 232.244 88.8265C232.706 89.0622 233.312 89.4899 234.226 90.139L236.231 91.5621C236.921 92.0524 237.358 92.3658 237.635 92.6308C237.767 92.7562 237.825 92.8376 237.851 92.8845C237.869 92.9179 237.869 92.9293 237.869 92.9357V92.9379C237.869 92.9443 237.869 92.9558 237.851 92.9892C237.825 93.036 237.767 93.1174 237.635 93.2428C237.358 93.5078 236.921 93.8212 236.231 94.3115L231.527 97.6516ZM242.75 90.6285C243.096 90.2991 243.643 90.3124 243.973 90.6583L243.375 91.2274C243.973 90.6583 243.973 90.6583 243.973 90.6583L243.974 90.6598L243.976 90.6616L243.98 90.6658L243.99 90.6771C243.998 90.6858 244.008 90.697 244.02 90.7106C244.044 90.738 244.076 90.7754 244.115 90.8229C244.193 90.918 244.298 91.0539 244.42 91.2323C244.665 91.5891 244.98 92.1154 245.291 92.8238C245.915 94.2435 246.517 96.3798 246.517 99.3264C246.517 102.273 245.915 104.409 245.291 105.829C244.98 106.537 244.665 107.064 244.42 107.421C244.298 107.599 244.193 107.735 244.115 107.83C244.076 107.878 244.044 107.915 244.02 107.942C244.008 107.956 243.998 107.967 243.99 107.976L243.98 107.987L243.976 107.991L243.974 107.993C243.974 107.993 243.973 107.995 243.375 107.425L243.973 107.995C243.643 108.34 243.096 108.354 242.75 108.024C242.405 107.696 242.391 107.152 242.716 106.806L242.719 106.803L242.718 106.804L242.716 106.806L242.724 106.797C242.734 106.786 242.751 106.766 242.775 106.736C242.824 106.677 242.9 106.579 242.993 106.442C243.181 106.169 243.443 105.736 243.708 105.133C244.237 103.93 244.788 102.03 244.788 99.3264C244.788 96.6229 244.237 94.7234 243.708 93.5198C243.443 92.9165 243.181 92.4842 242.993 92.2105C242.9 92.0735 242.824 91.9761 242.775 91.9167C242.751 91.887 242.734 91.8668 242.724 91.856L242.716 91.8472L242.718 91.8487L242.719 91.8498M242.75 90.6285C242.405 90.9565 242.391 91.5011 242.716 91.8472L242.75 90.6285ZM240.637 93.9487C241.06 93.7263 241.583 93.8886 241.805 94.3112L241.04 94.714C241.805 94.3112 241.805 94.3112 241.805 94.3112L241.806 94.313L241.808 94.3156L241.812 94.3232L241.824 94.3478C241.835 94.3684 241.849 94.3972 241.867 94.4337C241.903 94.5069 241.952 94.6113 242.011 94.743C242.128 95.006 242.282 95.3803 242.436 95.8345C242.741 96.7354 243.058 97.9875 243.058 99.3264C243.058 100.665 242.741 101.917 242.436 102.818C242.282 103.273 242.128 103.647 242.011 103.91C241.952 104.042 241.903 104.146 241.867 104.219C241.849 104.256 241.835 104.285 241.824 104.305L241.812 104.33L241.808 104.337L241.806 104.34L241.806 104.341C241.806 104.341 241.805 104.342 241.04 103.939L241.806 104.341C241.583 104.764 241.06 104.927 240.637 104.704C240.215 104.482 240.053 103.96 240.274 103.537M240.275 103.536L240.282 103.522C240.288 103.509 240.299 103.489 240.312 103.461C240.34 103.405 240.38 103.319 240.43 103.207C240.529 102.984 240.663 102.659 240.798 102.263C241.069 101.463 241.328 100.409 241.328 99.3264C241.328 98.2439 241.069 97.1897 240.798 96.3898C240.663 95.9936 240.529 95.6689 240.43 95.4454C240.38 95.3339 240.34 95.2482 240.312 95.1921C240.299 95.164 240.288 95.1434 240.282 95.1307L240.275 95.1176L240.275 95.1165C240.052 94.6939 240.215 94.1711 240.637 93.9487" fill="white"/>
</g>
<defs>
<clipPath id="clip0_18_561">
<rect width="42.9838" height="42.9838" fill="white" transform="translate(214.292 78.0752)"/>
</clipPath>
</defs>
</svg>
